<?xml version="1.0" standalone="no"?><!DOCTYPE svg PUBLIC "-//W3C//DTD SVG 1.1//EN" "http://www.w3.org/Graphics/SVG/1.1/DTD/svg11.dtd"><svg t="1644658567603" class="icon" viewBox="0 0 1039 1024" version="1.1" xmlns="http://www.w3.org/2000/svg" p-id="11009" xmlns:xlink="http://www.w3.org/1999/xlink" width="202.9296875" height="200"><defs><style type="text/css"></style></defs><path d="M327.834275 482.109228h-115.706215c-84.851224 0-154.274953-69.423729-154.274953-154.274953v-115.706215c0-84.851224 69.423729-154.274953 154.274953-154.274953h115.706215c84.851224 0 154.274953 69.423729 154.274953 154.274953v115.706215c0 84.851224-69.423729 154.274953-154.274953 154.274953z m-115.706215-347.118644c-42.425612 0-77.137476 34.711864-77.137476 77.137476v115.706215c0 42.425612 34.711864 77.137476 77.137476 77.137476h115.706215c42.425612 0 77.137476-34.711864 77.137476-77.137476v-115.706215c0-42.425612-34.711864-77.137476-77.137476-77.137476h-115.706215zM327.834275 983.502825h-115.706215c-84.851224 0-154.274953-69.423729-154.274953-154.274953v-115.706215c0-84.851224 69.423729-154.274953 154.274953-154.274953h115.706215c84.851224 0 154.274953 69.423729 154.274953 154.274953v115.706215c0 84.851224-69.423729 154.274953-154.274953 154.274953z m-115.706215-347.118644c-42.425612 0-77.137476 34.711864-77.137476 77.137476v115.706215c0 42.425612 34.711864 77.137476 77.137476 77.137476h115.706215c42.425612 0 77.137476-34.711864 77.137476-77.137476v-115.706215c0-42.425612-34.711864-77.137476-77.137476-77.137476h-115.706215zM829.227872 983.502825h-115.706215c-84.851224 0-154.274953-69.423729-154.274953-154.274953v-115.706215c0-84.851224 69.423729-154.274953 154.274953-154.274953h115.706215c84.851224 0 154.274953 69.423729 154.274953 154.274953v115.706215c0 84.851224-69.423729 154.274953-154.274953 154.274953z m-115.706215-347.118644c-42.425612 0-77.137476 34.711864-77.137476 77.137476v115.706215c0 42.425612 34.711864 77.137476 77.137476 77.137476h115.706215c42.425612 0 77.137476-34.711864 77.137476-77.137476v-115.706215c0-42.425612-34.711864-77.137476-77.137476-77.137476h-115.706215z" fill="#388CEB" p-id="11010"></path><path d="M761.73258 482.109228c-36.640301 0-75.20904-13.499058-104.135593-42.425612l-75.20904-75.20904c-55.92467-55.92467-57.853107-148.489642 0-206.342749l77.137477-75.20904c57.853107-55.92467 150.418079-55.92467 206.342749 0l75.20904 75.20904c55.92467 55.92467 57.853107 148.489642 1.928437 204.414312l-1.928437 1.928437-75.20904 75.20904c-28.926554 28.926554-67.495292 42.425612-104.135593 42.425612z m-125.348399-268.052731c-25.06968 25.06968-25.06968 69.423729 1.928437 96.421846l75.209039 75.209039c26.998117 26.998117 71.352166 26.998117 98.350283 0l77.137476-77.137476c25.06968-26.998117 25.06968-69.423729 0-96.421846l-75.209039-75.209039c-26.998117-26.998117-71.352166-26.998117-98.350283 0l-79.065913 77.137476z" fill="#E78E00" p-id="11011"></path></svg>